<svg width="34" height="31" viewBox="0 0 34 31" fill="none" xmlns="http://www.w3.org/2000/svg">
<path d="M11.3109 0H23.2504C26.1013 0.000299427 28.8353 1.14167 30.8512 3.17308C32.8671 5.20449 33.9997 7.95959 34 10.8324V20.1687C34 21.5912 33.7219 22.9997 33.1817 24.3139C32.6415 25.6281 31.8497 26.8222 30.8515 27.828C29.8533 28.8338 28.6682 29.6316 27.364 30.1758C26.0598 30.7201 24.662 31.0001 23.2504 31H11.4341C10.0225 31.0001 8.62472 30.7201 7.32053 30.1758C6.01634 29.6316 4.83131 28.8338 3.83311 27.828C2.8349 26.8222 2.04308 25.6281 1.50285 24.3139C0.962624 22.9997 0.68457 21.5912 0.68457 20.1687V10.8324C0.68457 4.8488 5.373 0 11.3109 0Z" fill="black"/>
<path d="M14.2323 17.5274V17.0012H11.0879V14.6592H17.2187V17.445C17.2187 21.8297 15.1407 24.3771 11.2111 24.3771C7.15822 24.3771 4.80469 21.1589 4.80469 15.4847C4.80469 9.95157 7.37329 6.56396 12.086 6.56396C13.8659 6.56396 15.4017 7.03936 16.2408 7.65816V10.069C15.0353 9.3162 13.6474 8.91262 12.2293 8.90254C9.13872 8.90254 7.82809 11.0175 7.82809 15.4847C7.82809 19.8174 8.91356 22.034 11.2671 22.034C13.5153 22.0453 14.2323 20.2917 14.2323 17.5274Z" fill="white"/>
<path d="M29.9329 17.8571C29.9329 22.0668 27.6813 24.3873 24.4439 24.3873C21.2066 24.3873 18.955 22.0668 18.955 17.8887C18.955 13.6791 21.2066 11.3586 24.4439 11.3586C27.6813 11.3586 29.9329 13.6689 29.9329 17.8571ZM26.8927 17.8571C26.8927 14.9686 26.0738 13.7005 24.4473 13.7005C22.8208 13.7005 22.0008 14.9686 22.0008 17.8887C22.0008 20.7772 22.8197 22.0465 24.4473 22.0465C26.0749 22.0465 26.8927 20.7671 26.8927 17.8571Z" fill="white"/>
</svg>
