<svg width="180" height="53" viewBox="0 0 180 53" fill="none" xmlns="http://www.w3.org/2000/svg">
<path d="M143.016 0.935547H162.478C167.125 0.936031 171.581 2.78168 174.867 6.06658C178.153 9.35148 180 13.8066 180 18.4522V33.5494C180 35.8496 179.547 38.1273 178.666 40.2524C177.786 42.3775 176.495 44.3084 174.868 45.9348C173.241 47.5612 171.309 48.8513 169.183 49.7314C167.057 50.6115 164.779 51.0644 162.478 51.0641H143.216C140.915 51.0644 138.637 50.6115 136.511 49.7314C134.385 48.8513 132.454 47.5612 130.826 45.9348C129.199 44.3084 127.909 42.3775 127.028 40.2524C126.147 38.1273 125.694 35.8496 125.694 33.5494V18.4522C125.694 8.7763 133.336 0.935547 143.016 0.935547Z" fill="#21201F"/>
<path d="M147.778 29.2782V28.4273H142.652V24.6402H152.646V29.1449C152.646 36.2352 149.259 40.3546 142.853 40.3546C136.247 40.3546 132.41 35.1506 132.41 25.975C132.41 17.0277 136.597 11.5498 144.279 11.5498C147.181 11.5498 149.684 12.3185 151.052 13.3192V17.2176C149.087 16.0003 146.824 15.3477 144.513 15.3314C139.475 15.3314 137.339 18.7515 137.339 25.975C137.339 32.9813 139.108 36.5657 142.944 36.5657C146.609 36.584 147.778 33.7482 147.778 29.2782Z" fill="white"/>
<path d="M173.371 29.8114C173.371 36.6187 169.701 40.3711 164.423 40.3711C159.146 40.3711 155.476 36.6187 155.476 29.8625C155.476 23.0553 159.146 19.3029 164.423 19.3029C169.701 19.3029 173.371 23.0389 173.371 29.8114ZM168.415 29.8114C168.415 25.1406 167.08 23.09 164.429 23.09C161.778 23.09 160.441 25.1406 160.441 29.8625C160.441 34.5334 161.776 36.5858 164.429 36.5858C167.082 36.5858 168.415 34.517 168.415 29.8114Z" fill="white"/>
<g filter="url(#filter0_d_516_33)">
<path d="M17.746 15.7505H15.5548C11.5742 15.7505 9.47794 17.7682 9.47794 20.7536C9.47794 24.1408 10.9278 25.7093 13.9151 27.7271L16.3674 29.3796L9.27708 39.9702H4L10.3562 30.4952C6.68602 27.8768 4.63361 25.3423 4.63361 21.0221C4.63361 15.6172 8.38235 11.9634 15.5037 11.9634H22.5921V39.9721H17.7295V15.7505H17.746ZM42.6359 19.7037V39.9721H37.8482V31.5141H31.4408V39.9721H26.6531V19.7037H31.4408V27.7271H37.8482V19.7037H42.6359ZM64.2719 44.5936H59.8348V39.9556H49.0743V44.5936H44.6372V36.1777H46.1381C47.8235 32.7905 48.1576 26.385 48.1576 21.4311V19.6964H62.1355V36.1777H64.2719V44.5936ZM57.3478 23.4908H52.2771V24.0915C52.2771 27.5938 51.9119 33.1155 50.5752 36.185H57.3478V23.4908ZM75.0306 40.3555C68.9099 40.3555 65.4387 36.9355 65.4387 29.8799C65.4387 23.7574 68.2252 19.2892 74.0646 19.2892C78.8524 19.2892 81.9547 21.957 81.9547 28.9979V31.5324H70.3944C70.5934 34.9196 71.9282 36.5703 75.4323 36.5703C77.7677 36.5703 80.2693 35.6865 81.7538 34.6694V38.588C80.3533 39.5557 78.1 40.3555 75.0306 40.3555ZM70.3944 27.9936H77.083V27.5956C77.083 25.0611 76.3526 23.0927 73.9788 23.0927C71.6945 23.0726 70.5277 24.7744 70.3944 27.9936ZM89.978 30.0132V39.9721H85.1739V19.7037H89.978V29.0454L96.7597 19.7037H101.599L94.826 29.0454L102.515 39.9556H97.0683L89.978 30.0132ZM102.239 29.847C102.239 23.6734 105.426 19.2874 111.552 19.2874C113.926 19.2874 115.706 19.6873 116.707 20.2533V24.3253C115.739 23.7245 113.92 23.0726 112.069 23.0726C108.932 23.0726 107.197 25.3259 107.197 29.7302C107.197 33.9171 108.616 36.5849 112.036 36.5849C114.054 36.5849 115.505 36.0681 116.707 35.2172V39.1212C115.538 39.9721 113.968 40.372 111.751 40.372C105.342 40.3555 102.238 36.6196 102.238 29.847H102.239Z" fill="#21201F"/>
<path d="M13.6352 28.1414L13.6357 28.1417L15.6746 29.5156L9.01011 39.4702H4.93751L10.7715 30.7738L11.0421 30.3704L10.6466 30.0882C8.83289 28.7942 7.46049 27.5493 6.53829 26.1251C5.62347 24.7122 5.13361 23.0947 5.13361 21.0221C5.13361 18.4415 6.02423 16.3232 7.72624 14.8432C9.43655 13.3559 12.0239 12.4634 15.5037 12.4634H22.0921V39.4721H18.2295V15.7505H17.746V15.2505H17.7295H17.2295H15.5548C13.485 15.2505 11.8365 15.7751 10.6978 16.7532C9.55008 17.7392 8.97794 19.1369 8.97794 20.7536C8.97794 22.5268 9.35995 23.8701 10.1646 25.0376C10.9565 26.1867 12.1324 27.1264 13.6352 28.1414ZM38.3482 27.7271V20.2037H42.1359V39.4721H38.3482V31.5141V31.0141H37.8482H31.4408H30.9408V31.5141V39.4721H27.1531V20.2037H30.9408V27.7271V28.2271H31.4408H37.8482H38.3482V27.7271ZM48.6576 21.4311V20.1964H61.6355V36.1777V36.6777H62.1355H63.7719V44.0936H60.3348V39.9556V39.4556H59.8348H49.0743H48.5743V39.9556V44.0936H45.1372V36.6777H46.1381H46.4478L46.5858 36.4004C47.4692 34.625 47.9812 32.1042 48.2768 29.4472C48.5739 26.7773 48.6576 23.917 48.6576 21.4311ZM57.8478 23.4908V22.9908H57.3478H52.2771H51.7771V23.4908V24.0915C51.7771 25.8276 51.6864 28.0637 51.4308 30.2423C51.174 32.431 50.7551 34.5196 50.1168 35.9854L49.8122 36.685H50.5752H57.3478H57.8478V36.185V23.4908ZM81.4547 28.9979V31.0324H70.3944H69.8642L69.8953 31.5617C69.9974 33.3003 70.3945 34.7035 71.312 35.6664C72.24 36.6405 73.6086 37.0703 75.4323 37.0703C77.5007 37.0703 79.6838 36.4117 81.2538 35.5581V38.3196C79.9341 39.1583 77.8566 39.8555 75.0306 39.8555C72.0619 39.8555 69.8144 39.0281 68.3037 37.4211C66.788 35.8088 65.9387 33.3324 65.9387 29.8799C65.9387 26.8854 66.6213 24.3575 67.9604 22.5906C69.2847 20.8431 71.2882 19.7892 74.0646 19.7892C76.3663 19.7892 78.1812 20.4278 79.4312 21.8352C80.6915 23.2542 81.4547 25.5399 81.4547 28.9979ZM69.8948 27.973L69.8733 28.4936H70.3944H77.083H77.583V27.9936V27.5956C77.583 26.2973 77.399 25.0633 76.8512 24.1388C76.2785 23.1722 75.3359 22.5934 73.981 22.5927C72.6951 22.582 71.6723 23.0661 70.9741 24.0364C70.2977 24.9764 69.9632 26.3208 69.8948 27.973ZM90.3851 29.7229L90.2459 29.5276L90.3827 29.3391L97.0146 20.2037H100.619L94.4212 28.7519L94.2114 29.0413L94.4173 29.3334L101.551 39.4556H97.3259L90.3851 29.7229ZM89.478 30.0132V30.5853V39.4721H85.6739V20.2037H89.478V28.4509V29.0454V30.0132ZM104.965 37.3117C103.541 35.7016 102.781 33.3064 102.739 30.127V29.847C102.739 26.8402 103.516 24.3262 104.982 22.5728C106.438 20.8318 108.618 19.7874 111.552 19.7874C113.682 19.7874 115.267 20.117 116.207 20.558V23.495C115.125 22.9977 113.61 22.5726 112.069 22.5726C110.367 22.5726 108.989 23.1923 108.055 24.452C107.139 25.687 106.697 27.4747 106.697 29.7302C106.697 31.8651 107.056 33.6936 107.916 35.0022C108.799 36.3456 110.173 37.0849 112.036 37.0849C113.737 37.0849 115.076 36.7319 116.207 36.1176V38.8586C115.176 39.5291 113.776 39.8719 111.752 39.872C108.645 39.8638 106.422 38.9578 104.965 37.3117Z" stroke="black"/>
</g>
<defs>
<filter id="filter0_d_516_33" x="0" y="11.9634" width="120.707" height="40.6304" filterUnits="userSpaceOnUse" color-interpolation-filters="sRGB">
<feFlood flood-opacity="0" result="BackgroundImageFix"/>
<feColorMatrix in="SourceAlpha" type="matrix" values="0 0 0 0 0 0 0 0 0 0 0 0 0 0 0 0 0 0 127 0" result="hardAlpha"/>
<feOffset dy="4"/>
<feGaussianBlur stdDeviation="2"/>
<feComposite in2="hardAlpha" operator="out"/>
<feColorMatrix type="matrix" values="0 0 0 0 0 0 0 0 0 0 0 0 0 0 0 0 0 0 0.25 0"/>
<feBlend mode="normal" in2="BackgroundImageFix" result="effect1_dropShadow_516_33"/>
<feBlend mode="normal" in="SourceGraphic" in2="effect1_dropShadow_516_33" result="shape"/>
</filter>
</defs>
</svg>
